<svg width="1375" height="798" viewBox="0 0 1375 798" fill="none" xmlns="http://www.w3.org/2000/svg">
<path fill-rule="evenodd" clip-rule="evenodd" d="M598.755 162.953C595.078 162.953 591.401 162.008 588.12 160.116L496.187 107.034C493.956 105.748 492.566 103.346 492.566 100.764C492.566 98.1825 493.956 95.7804 496.187 94.4943L531.958 73.8307C533.962 72.677 535.21 70.5113 535.21 68.1944C535.21 65.8774 533.962 63.7212 531.958 62.558L524.376 58.1794C522.145 56.8933 520.756 54.4912 520.756 51.9094C520.756 49.3277 522.145 46.9256 524.376 45.6395L603.406 0L603.775 0.643076L524.755 46.2825C522.75 47.4363 521.503 49.6019 521.503 51.9189C521.503 54.2359 522.75 56.3921 524.755 57.5553L532.336 61.9338C534.567 63.22 535.957 65.6221 535.957 68.2038C535.957 70.7856 534.567 73.1877 532.336 74.4738L496.565 95.1374C494.561 96.2911 493.313 98.4568 493.313 100.774C493.313 103.091 494.561 105.247 496.565 106.41L588.498 159.492C594.823 163.143 602.688 163.143 609.012 159.502L672.907 122.695C674.911 121.541 676.159 119.376 676.159 117.059C676.159 114.742 674.911 112.586 672.907 111.422L636.975 90.6642C634.735 89.3686 633.345 86.9571 633.354 84.3564C633.364 81.7652 634.772 79.3631 637.032 78.0864L672.85 57.8106C679.373 54.1224 687.446 54.1507 693.941 57.8863L805.348 122.052C811.71 125.712 819.604 125.693 825.947 121.995L861.52 101.228C863.515 100.064 864.753 97.8988 864.744 95.5913C864.744 93.2838 863.486 91.1276 861.492 89.9738L805.764 57.8673C803.514 56.5717 802.125 54.1507 802.134 51.5595C802.144 48.9589 803.562 46.5568 805.821 45.2801L886.127 0L886.486 0.643076L806.171 45.9137C804.138 47.058 802.872 49.2142 802.862 51.5501C802.853 53.8859 804.101 56.0516 806.114 57.2148L861.841 89.3213C864.072 90.6075 865.462 93.0001 865.472 95.5724C865.472 98.1447 864.101 100.547 861.879 101.852L826.306 122.619C819.736 126.459 811.559 126.478 804.97 122.686L693.563 58.5199C687.295 54.9073 679.496 54.8789 673.21 58.4442L637.391 78.72C635.368 79.8643 634.101 82.0205 634.092 84.3469C634.082 86.6733 635.33 88.839 637.344 90.0117L673.276 110.77C675.507 112.056 676.896 114.467 676.896 117.049C676.896 119.631 675.507 122.033 673.266 123.319L609.371 160.126C606.1 162.017 602.423 162.953 598.755 162.953ZM288.185 243.726C284.063 243.726 279.951 242.666 276.283 240.548L187.507 189.272C180.389 185.158 171.55 185.158 164.431 189.272L131.534 208.271C124.16 212.527 115.009 212.518 107.655 208.234L0 145.59L0.36868 144.957L108.014 207.59C115.142 211.742 124.009 211.752 131.146 207.628L164.044 188.629C171.389 184.392 180.511 184.392 187.857 188.629L276.642 239.905C283.704 243.981 292.496 244.009 299.586 239.981L362.705 204.063C364.728 202.919 365.986 200.753 365.995 198.436C365.995 196.11 364.757 193.944 362.753 192.781L215.007 107.242C207.803 103.072 198.87 103.11 191.704 107.356L131.553 142.952C124.17 147.321 114.962 147.368 107.522 143.075L72.5732 122.894C70.3328 121.598 68.9432 119.186 68.9526 116.605C68.9526 114.014 70.3612 111.611 72.611 110.335L165.263 57.5836C167.296 56.4299 168.553 54.2642 168.553 51.9283C168.553 49.5925 167.286 47.4268 165.263 46.2731L85.5243 1.0119L85.893 0.36882L165.622 45.6205C167.882 46.9067 169.29 49.3182 169.29 51.9094C169.29 54.5101 167.891 56.9216 165.632 58.2078L72.9797 110.959C70.9567 112.113 69.6994 114.269 69.6994 116.595C69.6994 118.922 70.9378 121.087 72.9514 122.251L107.9 142.432C115.104 146.593 124.028 146.546 131.184 142.309L191.335 106.713C198.728 102.334 207.945 102.296 215.385 106.599L363.131 192.138C365.371 193.433 366.752 195.845 366.742 198.436C366.742 201.027 365.333 203.42 363.084 204.706L299.964 240.624C296.334 242.695 292.259 243.726 288.194 243.726H288.185ZM0.160645 629.022L0.529325 629.666L144.541 546.501C146.782 545.205 148.162 542.794 148.162 540.202C148.153 537.611 146.753 535.209 144.504 533.932L108.184 513.259C106.151 512.106 104.894 509.94 104.894 507.614C104.894 505.278 106.142 503.112 108.165 501.958L257.32 416.562C259.551 415.275 260.95 412.883 260.959 410.311C260.978 407.729 259.607 405.327 257.386 404.022L220.773 382.535C218.778 381.363 217.549 379.197 217.559 376.89C217.578 374.582 218.826 372.435 220.83 371.282L369.455 286.036C371.696 284.75 373.095 282.339 373.095 279.757C373.095 277.175 371.705 274.763 369.465 273.477L350.114 262.346C348.109 261.193 346.852 259.036 346.852 256.729C346.843 254.421 348.081 252.256 350.076 251.093L441.783 197.453C443.995 196.157 445.365 193.755 445.365 191.183C445.356 188.61 443.966 186.218 441.745 184.932L305.777 106.401C303.773 105.247 302.525 103.091 302.525 100.774C302.525 98.4568 303.773 96.2911 305.777 95.1374L468.734 1.0119L468.365 0.36882L305.409 94.4754C303.178 95.7615 301.788 98.1636 301.788 100.745C301.788 103.327 303.178 105.729 305.409 107.015L441.376 185.546C443.38 186.7 444.628 188.856 444.628 191.164C444.628 193.481 443.399 195.637 441.404 196.8L349.698 250.44C347.476 251.736 346.115 254.147 346.115 256.72C346.124 259.292 347.514 261.684 349.745 262.971L369.096 274.101C371.109 275.265 372.357 277.421 372.357 279.747C372.348 282.064 371.1 284.23 369.086 285.384L220.461 370.629C218.23 371.906 216.831 374.298 216.822 376.871C216.803 379.443 218.173 381.845 220.395 383.15L257.008 404.636C259.002 405.809 260.231 407.975 260.222 410.282C260.212 412.59 258.955 414.746 256.951 415.89L107.796 501.287C105.546 502.582 104.157 504.994 104.157 507.585C104.157 510.186 105.565 512.588 107.815 513.874L144.135 534.547C146.158 535.691 147.415 537.848 147.425 540.174C147.434 542.5 146.186 544.666 144.173 545.829L0.160645 629.022ZM391.765 479.28C388.087 479.28 384.41 478.335 381.12 476.434L354.33 460.953C352.099 459.657 350.709 457.255 350.709 454.673C350.709 452.092 352.108 449.689 354.349 448.403L644.774 281.677C646.778 280.523 648.026 278.376 648.035 276.069C648.045 273.761 646.816 271.595 644.821 270.432L643.753 269.808C641.531 268.512 640.161 266.11 640.17 263.538C640.17 260.966 641.56 258.573 643.791 257.287L961.243 73.9159C967.804 70.1236 975.952 70.1236 982.513 73.9159L1018.23 94.5416C1024.59 98.2203 1032.49 98.2014 1038.84 94.4943L1074.81 73.5092C1076.8 72.346 1078.04 70.1804 1078.03 67.8634C1078.03 65.5464 1076.77 63.3997 1074.76 62.2459L968.002 1.0119L968.371 0.36882L1075.14 61.6123C1077.37 62.8985 1078.77 65.2911 1078.78 67.8634C1078.78 70.4357 1077.41 72.8472 1075.18 74.1428L1039.21 95.1279C1032.63 98.9674 1024.46 98.9863 1017.86 95.1752L982.144 74.5495C975.811 70.8896 967.945 70.8896 961.612 74.5495L644.15 257.911C642.155 259.065 640.907 261.212 640.898 263.519C640.898 265.827 642.127 267.983 644.112 269.155L645.18 269.78C647.402 271.085 648.773 273.487 648.763 276.059C648.754 278.631 647.355 281.024 645.124 282.31L354.698 449.037C352.685 450.191 351.437 452.347 351.437 454.664C351.437 456.981 352.675 459.146 354.689 460.3L381.48 475.781C387.842 479.46 395.726 479.441 402.078 475.753L577.702 373.598C584.112 369.872 592.138 369.768 598.642 373.343C602.914 375.689 608.189 375.632 612.415 373.192L961.347 171.417C967.917 167.616 976.075 167.616 982.645 171.417L1077.68 226.429C1081.99 228.925 1087.35 228.935 1091.67 226.457L1130.62 204.158C1132.63 203.004 1133.89 200.848 1133.89 198.521C1133.89 196.204 1132.64 194.039 1130.64 192.875L1094.36 171.947C1092.12 170.661 1090.73 168.259 1090.73 165.677C1090.73 163.095 1092.12 160.693 1094.36 159.407L1214.82 89.9171C1216.82 88.7633 1218.07 86.5977 1218.07 84.2807C1218.07 81.9638 1216.82 79.8076 1214.82 78.6444L1080.47 1.07809L1080.84 0.435019L1215.19 78.0202C1217.42 79.3063 1218.81 81.7179 1218.81 84.2902C1218.81 86.8719 1217.42 89.274 1215.19 90.5602L1094.72 160.05C1092.72 161.204 1091.47 163.37 1091.47 165.687C1091.47 168.003 1092.72 170.16 1094.72 171.323L1131.01 192.251C1133.25 193.547 1134.64 195.949 1134.63 198.54C1134.63 201.122 1133.23 203.533 1130.99 204.81L1092.04 227.11C1087.49 229.71 1081.85 229.701 1077.31 227.072L982.277 172.061C975.934 168.391 968.059 168.391 961.716 172.061L612.784 373.835C608.341 376.407 602.792 376.464 598.292 373.996C592.015 370.544 584.273 370.638 578.081 374.242L402.457 476.396C399.157 478.316 395.461 479.271 391.765 479.271V479.28ZM102.805 797.357L103.174 798L144.144 774.66C146.394 773.374 147.803 770.972 147.803 768.381C147.803 765.789 146.413 763.378 144.163 762.092L108.307 741.504C106.303 740.35 105.045 738.203 105.045 735.886C105.045 733.579 106.284 731.413 108.278 730.25L116.04 725.73C118.261 724.434 119.632 722.032 119.632 719.45C119.632 716.868 118.233 714.476 116.002 713.19L108.477 708.868C101.907 705.094 93.7581 705.113 87.2069 708.915L0.160645 759.453L0.529325 760.096L87.5662 709.549C93.8904 705.879 101.756 705.86 108.099 709.501L115.624 713.823C117.628 714.977 118.885 717.124 118.885 719.441C118.885 721.748 117.647 723.914 115.652 725.077L107.891 729.597C105.669 730.893 104.299 733.305 104.299 735.877C104.308 738.459 105.707 740.851 107.938 742.137L143.795 762.725C145.808 763.889 147.056 766.054 147.056 768.381C147.056 770.707 145.799 772.863 143.776 774.017L102.805 797.357ZM216.51 798L216.507 797.995L228.818 790.87C231.049 789.574 232.429 787.172 232.429 784.59C232.429 782.008 231.03 779.606 228.799 778.32L221.227 773.96C219.213 772.797 217.966 770.641 217.966 768.324C217.966 766.007 219.213 763.851 221.218 762.688L285.113 725.786C291.456 722.127 299.34 722.136 305.674 725.805L341.01 746.28C347.59 750.1 355.757 750.091 362.337 746.28L454.1 693.065C460.425 689.396 468.29 689.377 474.624 693.018L482.035 697.274C488.577 701.028 496.697 701.019 503.239 697.255L566.898 660.571C569.138 659.285 570.528 656.883 570.528 654.301C570.528 651.719 569.138 649.308 566.907 648.022L559.25 643.605C557.246 642.442 555.998 640.286 555.998 637.969C556.007 635.642 557.255 633.486 559.259 632.332L679.997 562.805C682.238 561.509 683.627 559.107 683.627 556.516C683.618 553.924 682.228 551.522 679.978 550.236L643.895 529.611C641.891 528.466 640.624 526.31 640.624 523.993C640.615 521.676 641.853 519.51 643.857 518.347L678.986 497.911C685.291 494.241 693.147 494.213 699.49 497.835L820.341 566.89C826.864 570.616 834.966 570.607 841.479 566.871L1074.2 433.367C1076.42 432.09 1077.82 429.707 1077.84 427.144C1077.86 424.581 1076.51 422.179 1074.31 420.865L1038.18 399.35C1036.21 398.177 1034.99 396.012 1035.01 393.714C1035.03 391.415 1036.27 389.269 1038.27 388.124L1158.84 318.843C1161.07 317.556 1162.47 315.164 1162.47 312.582C1162.48 310 1161.1 307.598 1158.87 306.303L1095.02 269.203C1093.02 268.049 1091.78 265.883 1091.78 263.576C1091.78 261.259 1093.02 259.103 1095.03 257.949L1303.86 137.174C1306.09 135.878 1307.47 133.476 1307.47 130.894C1307.47 128.312 1306.08 125.91 1303.85 124.624L1267.93 103.923C1265.92 102.769 1264.68 100.603 1264.68 98.2865C1264.68 95.9696 1265.92 93.8039 1267.94 92.6502L1411.02 10.4311L1410.65 9.78799L1267.57 91.9976C1265.33 93.2932 1263.94 95.6953 1263.94 98.2771C1263.94 100.859 1265.33 103.27 1267.57 104.557L1303.49 125.258C1305.5 126.412 1306.74 128.568 1306.74 130.885C1306.75 133.202 1305.51 135.358 1303.5 136.521L1094.68 257.296C1092.46 258.583 1091.07 260.985 1091.07 263.557C1091.07 266.129 1092.45 268.531 1094.67 269.827L1158.52 306.927C1160.51 308.09 1161.75 310.246 1161.75 312.563C1161.75 314.88 1160.49 317.036 1158.49 318.19L1037.92 387.472C1035.7 388.749 1034.31 391.132 1034.29 393.695C1034.27 396.257 1035.62 398.66 1037.82 399.974L1073.95 421.489C1075.92 422.661 1077.14 424.827 1077.12 427.125C1077.1 429.423 1075.85 431.57 1073.85 432.714L841.129 566.219C834.843 569.831 827.025 569.831 820.729 566.237L699.878 497.183C693.317 493.438 685.178 493.466 678.636 497.268L643.507 517.704C641.276 519 639.896 521.411 639.906 523.993C639.915 526.575 641.314 528.977 643.555 530.254L679.638 550.879C681.652 552.033 682.909 554.189 682.909 556.516C682.909 558.842 681.661 560.998 679.648 562.162L558.909 631.689C556.669 632.976 555.279 635.378 555.279 637.959C555.279 640.541 556.669 642.953 558.9 644.239L566.557 648.655C568.561 649.818 569.809 651.975 569.809 654.292C569.809 656.609 568.561 658.774 566.557 659.928L502.898 696.612C496.584 700.253 488.737 700.253 482.423 696.631L475.011 692.375C468.441 688.611 460.302 688.63 453.751 692.422L361.987 745.637C355.635 749.315 347.75 749.315 341.398 745.637L306.071 725.162C299.501 721.351 291.342 721.351 284.772 725.143L220.877 762.045C218.646 763.34 217.257 765.742 217.257 768.324C217.257 770.906 218.646 773.308 220.887 774.594L228.459 778.954C230.472 780.107 231.72 782.264 231.72 784.581C231.73 786.898 230.482 789.054 228.478 790.217L216.141 797.357L216.507 797.995L216.481 798.01L216.51 798ZM0.160645 701.132L0.529325 701.775L256.989 552.78C263.341 549.092 271.235 549.083 277.597 552.771L453.949 654.991C460.51 658.802 468.677 658.803 475.247 655.01L567.096 601.957C569.327 600.67 570.717 598.268 570.717 595.687C570.717 593.105 569.327 590.703 567.096 589.417L559.571 585.066C553.058 581.302 544.956 581.274 538.424 584.991L477.63 619.537C471.324 623.121 463.506 623.093 457.22 619.461L336.898 549.962C334.884 548.808 333.646 546.643 333.646 544.326C333.646 542.009 334.894 539.852 336.907 538.699L566.69 406.764C572.995 403.133 580.841 403.133 587.146 406.764L707.544 476.027C714.086 479.791 722.225 479.791 728.767 476.018L736.235 471.705C738.466 470.419 739.856 468.017 739.856 465.435C739.856 462.863 738.466 460.452 736.235 459.165L644.065 405.932C642.061 404.769 640.813 402.613 640.813 400.296C640.813 397.979 642.061 395.813 644.065 394.659L709.444 356.907L709.076 356.264L643.696 394.016C641.465 395.302 640.076 397.704 640.076 400.286C640.076 402.868 641.465 405.27 643.696 406.556L735.866 459.79C737.87 460.953 739.118 463.109 739.118 465.426C739.118 467.743 737.87 469.909 735.866 471.062L728.398 475.375C722.074 479.016 714.228 479.025 707.903 475.384L587.506 406.121C580.973 402.367 572.853 402.367 566.311 406.121L336.529 538.056C334.289 539.342 332.89 541.744 332.89 544.326C332.89 546.907 334.279 549.309 336.51 550.605L456.832 620.105C463.346 623.868 471.447 623.897 477.979 620.18L538.774 585.634C545.079 582.05 552.897 582.078 559.184 585.709L566.708 590.06C568.712 591.223 569.96 593.389 569.96 595.696C569.96 598.004 568.712 600.169 566.708 601.323L474.86 654.377C468.517 658.036 460.642 658.036 454.299 654.358L277.947 552.137C271.367 548.317 263.181 548.326 256.601 552.147L0.160645 701.132ZM102.068 410.859C97.946 410.859 93.8338 409.8 90.1659 407.682L0.415947 355.848L0.784627 355.205L90.5251 407.038C97.5868 411.114 106.378 411.143 113.468 407.114L153.503 384.332C155.772 383.037 157.199 380.616 157.209 377.996C157.228 375.376 155.829 372.937 153.569 371.622L113.705 348.329C111.228 346.883 109.696 344.206 109.706 341.331C109.706 338.466 111.256 335.789 113.743 334.361L122.317 329.415C124.576 328.11 125.985 325.67 125.985 323.06C125.985 320.45 124.576 318.01 122.317 316.705L0 246.052L0.36868 245.409L122.695 316.062C125.181 317.5 126.731 320.176 126.731 323.06C126.731 325.945 125.181 328.612 122.695 330.059L114.121 335.005C111.861 336.31 110.462 338.731 110.453 341.341C110.453 343.941 111.842 346.381 114.092 347.696L153.957 370.988C156.443 372.445 157.975 375.131 157.956 378.005C157.937 380.88 156.377 383.557 153.872 384.975L113.837 407.757C110.207 409.828 106.133 410.859 102.068 410.859ZM471.428 797.357L471.797 798L471.787 798.009L790.507 612.993C797.625 608.851 806.483 608.841 813.62 612.964L846.536 631.973C853.882 636.21 863.004 636.21 870.349 631.973L959.135 580.697C966.197 576.621 974.988 576.583 982.078 580.622L1045.2 616.539C1047.22 617.683 1048.49 619.84 1048.49 622.166C1048.5 624.493 1047.26 626.658 1045.25 627.821L897.499 713.36C890.296 717.53 881.363 717.483 874.197 713.246L814.045 677.65C806.653 673.272 797.445 673.224 790.015 677.518L755.066 697.699C752.826 698.985 751.445 701.397 751.445 703.988C751.455 706.579 752.854 708.981 755.104 710.258L847.756 763.009C849.788 764.163 851.046 766.328 851.046 768.664C851.046 771 849.788 773.166 847.756 774.32L807.239 797.319L807.608 797.962L848.125 774.963C850.384 773.686 851.793 771.274 851.793 768.674C851.793 766.073 850.393 763.662 848.134 762.375L755.482 709.624C753.459 708.48 752.192 706.324 752.192 703.997C752.183 701.671 753.431 699.505 755.444 698.342L790.393 678.161C797.597 674 806.521 674.047 813.677 678.284L873.828 713.88C881.221 718.259 890.438 718.296 897.878 713.993L1045.62 628.455C1047.86 627.159 1049.24 624.748 1049.23 622.157C1049.23 619.565 1047.83 617.163 1045.58 615.887L982.457 579.969C975.14 575.808 966.064 575.836 958.776 580.045L870 631.32C862.881 635.434 854.042 635.434 846.924 631.32L814.008 612.312C806.643 608.066 797.502 608.075 790.147 612.34L471.428 797.357ZM1417.63 411.275L1343.36 368.378C1336.24 364.264 1327.4 364.264 1320.28 368.378L1287.34 387.406C1279.99 391.642 1270.87 391.642 1263.52 387.406L1228.63 367.253C1226.39 365.957 1225 363.546 1225.01 360.954C1225.01 358.363 1226.42 355.961 1228.67 354.685L1321.42 301.886C1323.44 300.732 1324.7 298.576 1324.71 296.259C1324.71 293.933 1323.47 291.767 1321.45 290.604L1285.39 269.78C1283.16 268.493 1281.77 266.082 1281.77 263.51C1281.77 260.928 1283.16 258.526 1285.39 257.24L1417.13 181.205L1417.5 181.849L1285.76 257.883C1283.75 259.036 1282.51 261.202 1282.51 263.519C1282.51 265.836 1283.75 267.992 1285.76 269.155L1321.82 289.98C1324.06 291.275 1325.45 293.687 1325.44 296.278C1325.44 298.869 1324.03 301.271 1321.78 302.548L1229.04 355.346C1227.01 356.5 1225.76 358.656 1225.75 360.973C1225.75 363.3 1226.99 365.465 1229 366.629L1263.89 386.782C1271.01 390.895 1279.85 390.895 1286.97 386.782L1319.91 367.754C1327.26 363.517 1336.38 363.508 1343.73 367.754L1418 410.651L1417.63 411.294V411.275ZM1099.49 797.149L1099.86 797.792V797.801L1165.83 759.69C1168.07 758.394 1169.45 755.983 1169.45 753.391C1169.44 750.8 1168.04 748.398 1165.79 747.121L1129.47 726.448C1127.44 725.295 1126.19 723.129 1126.19 720.803C1126.19 718.467 1127.43 716.301 1129.46 715.147L1278.66 629.722C1280.88 628.446 1282.28 626.053 1282.3 623.49C1282.32 620.918 1280.96 618.506 1278.75 617.201L1169.46 552.383C1167.48 551.201 1166.26 549.045 1166.28 546.737C1166.3 544.43 1167.55 542.283 1169.55 541.139L1249.02 495.556C1256.13 491.47 1264.96 491.489 1272.06 495.603L1417.62 579.941L1417.99 579.298L1272.43 494.96C1265.1 490.723 1256 490.704 1248.65 494.913L1169.18 540.496C1166.95 541.772 1165.56 544.165 1165.54 546.728C1165.52 549.291 1166.88 551.702 1169.08 553.007L1278.37 617.825C1280.36 619.008 1281.58 621.164 1281.56 623.471C1281.54 625.779 1280.29 627.925 1278.29 629.07L1129.09 714.495C1126.84 715.79 1125.45 718.202 1125.45 720.793C1125.45 723.394 1126.86 725.796 1129.11 727.082L1165.43 747.755C1167.45 748.899 1168.72 751.056 1168.72 753.382C1168.73 755.708 1167.48 757.874 1165.46 759.037L1099.49 797.149Z" fill="url(#paint0_radial_13_821)"/>
<defs>
<radialGradient id="paint0_radial_13_821" cx="0" cy="0" r="1" gradientUnits="userSpaceOnUse" gradientTransform="translate(807.5 418.5) rotate(28.6223) scale(579.291 1236.25)">
<stop stop-color="#8D9EBB"/>
<stop offset="1" stop-color="#8D9EBB" stop-opacity="0"/>
</radialGradient>
</defs>
</svg>
