<svg width="300" height="201" viewBox="0 0 300 201" fill="none" xmlns="http://www.w3.org/2000/svg">
<g opacity="0.87">
<g opacity="0.87">
<path opacity="0.87" d="M154.937 12.0112L165.136 51.8215L129.954 72.8862L119.755 33.0759L154.937 12.0112Z" fill="#28374C"/>
<path opacity="0.87" d="M129.954 72.8856L100.443 60.8747L90.2446 21.0645L119.755 33.0754L129.954 72.8856Z" fill="#42536A"/>
<path opacity="0.87" d="M119.755 33.0756L90.2446 21.0647L125.427 0L154.938 12.0109L119.755 33.0756Z" fill="#8D9EBB"/>
</g>
<path opacity="0.87" d="M154.938 12.0109L125.427 0L90.2446 21.0647L100.443 60.875L129.984 72.8859L165.136 51.8212L154.938 12.0109Z" fill="url(#paint0_linear_5_3284)"/>
</g>
<path d="M113.546 49.1466C113.659 49.3356 111.096 50.9969 106.868 53.5534C102.64 56.1 96.7378 59.532 90.1716 63.2325C83.6053 66.933 77.611 70.2157 73.2403 72.5136C68.8594 74.8214 66.1022 76.1544 65.9899 75.9654C65.8775 75.7764 68.4407 74.1152 72.6684 71.5586C76.8961 69.012 82.7986 65.5801 89.375 61.8796C95.9413 58.1791 101.936 54.9063 106.306 52.5985C110.687 50.2906 113.444 48.9576 113.557 49.1466H113.546Z" fill="#8D9EBB"/>
<g opacity="0.87">
<g opacity="0.87">
<path opacity="0.87" d="M97.811 174.552L108.009 214.363L72.8372 235.437L62.6289 195.627L97.811 174.552Z" fill="#28374C"/>
<path opacity="0.87" d="M72.8373 235.438L43.3163 223.427L33.1182 183.617L62.629 195.628L72.8373 235.438Z" fill="#42536A"/>
<path opacity="0.87" d="M62.629 195.628L33.1182 183.617L68.3003 162.552L97.8111 174.553L62.629 195.628Z" fill="#8D9EBB"/>
</g>
<path opacity="0.87" d="M97.8111 174.553L68.3003 162.552L33.1182 183.617L43.3163 223.427L72.8575 235.438L108.009 214.363L97.8111 174.553Z" fill="url(#paint1_linear_5_3284)"/>
</g>
<g opacity="0.87">
<g opacity="0.87">
<path opacity="0.87" d="M289.802 167.88L300 207.69L264.818 228.755L254.62 188.945L289.802 167.88Z" fill="#28374C"/>
<path opacity="0.87" d="M264.818 228.754L235.307 216.743L225.109 176.933L254.62 188.944L264.818 228.754Z" fill="#42536A"/>
<path opacity="0.87" d="M254.62 188.944L225.109 176.933L260.291 155.869L289.802 167.88L254.62 188.944Z" fill="#8D9EBB"/>
</g>
<path opacity="0.87" d="M289.802 167.88L260.291 155.869L225.109 176.933L235.307 216.744L264.848 228.765L300 207.69L289.802 167.88Z" fill="url(#paint2_linear_5_3284)"/>
</g>
<g opacity="0.87">
<g opacity="0.87">
<path opacity="0.87" d="M187.286 122.946L197.484 162.756L162.302 183.821L152.104 144.01L187.286 122.946Z" fill="#28374C"/>
<path opacity="0.87" d="M162.302 183.82L132.791 171.809L122.593 131.999L152.104 144.01L162.302 183.82Z" fill="#42536A"/>
<path opacity="0.87" d="M152.104 144.01L122.593 131.999L157.775 110.935L187.286 122.946L152.104 144.01Z" fill="#8D9EBB"/>
</g>
<path opacity="0.87" d="M187.286 122.946L157.775 110.935L122.593 131.999L132.791 171.81L162.332 183.82L197.484 162.756L187.286 122.946Z" fill="url(#paint3_linear_5_3284)"/>
</g>
<path d="M142.702 158.869C142.815 159.064 140.546 160.602 136.806 162.951C133.066 165.289 127.833 168.438 122.008 171.822C116.183 175.207 110.859 178.191 106.976 180.283C103.082 182.375 100.63 183.575 100.517 183.38C100.405 183.186 102.663 181.647 106.414 179.299C110.164 176.96 115.386 173.812 121.222 170.427C127.047 167.043 132.361 164.059 136.254 161.966C140.148 159.874 142.6 158.674 142.713 158.869H142.702Z" fill="#8D9EBB"/>
<path d="M154.948 129.691C154.733 129.742 153.687 126.268 152.16 120.609C150.643 114.951 148.644 107.108 146.532 98.4221C144.42 89.7362 142.606 81.8528 141.365 76.1232C140.125 70.3935 139.469 66.8277 139.684 66.7769C139.899 66.7261 140.945 70.2005 142.472 75.859C143.99 81.5176 145.989 89.3603 148.1 98.0463C150.202 106.732 152.027 114.616 153.267 120.335C154.508 126.065 155.164 129.631 154.948 129.681V129.691Z" fill="#8D9EBB"/>
<path d="M63.6434 180.332C63.4322 180.382 62.427 177.037 60.9794 171.589C59.5319 166.141 57.6319 158.581 55.6315 150.212C53.631 141.843 51.902 134.243 50.7258 128.724C49.5497 123.206 48.9365 119.769 49.1476 119.719C49.3587 119.668 50.3639 123.014 51.8115 128.462C53.2591 133.909 55.159 141.469 57.1594 149.838C59.1599 158.207 60.8889 165.797 62.0651 171.316C63.2412 176.834 63.8545 180.271 63.6434 180.321V180.332Z" fill="#8D9EBB"/>
<path d="M258.526 171.124C258.315 171.174 257.361 168.004 255.974 162.828C254.598 157.652 252.789 150.481 250.901 142.539C249.002 134.588 247.374 127.376 246.269 122.139C245.164 116.903 244.591 113.631 244.802 113.58C245.013 113.53 245.967 116.7 247.354 121.876C248.73 127.052 250.539 134.223 252.428 142.165C254.327 150.106 255.954 157.318 257.059 162.565C258.165 167.801 258.737 171.073 258.526 171.124Z" fill="#8D9EBB"/>
<path d="M227.109 175.704C227.028 175.908 224.029 174.844 219.251 172.972C214.473 171.1 207.918 168.409 200.716 165.34C193.514 162.271 187.019 159.417 182.363 157.278C177.696 155.14 174.858 153.708 174.939 153.503C175.019 153.299 178.019 154.352 182.797 156.235C187.575 158.107 194.13 160.798 201.332 163.867C208.534 166.936 215.019 169.79 219.685 171.929C224.352 174.067 227.19 175.499 227.109 175.704Z" fill="#8D9EBB"/>
<path d="M176.472 153.477C176.472 154.32 175.79 155.012 174.938 155.012C174.085 155.012 173.403 154.33 173.403 153.477C173.403 152.625 174.085 151.943 174.938 151.943C175.79 151.943 176.472 152.625 176.472 153.477Z" fill="#8D9EBB"/>
<path d="M156.523 129.693C156.523 130.535 155.841 131.227 154.989 131.227C154.136 131.227 153.454 130.545 153.454 129.693C153.454 128.84 154.136 128.158 154.989 128.158C155.841 128.158 156.523 128.84 156.523 129.693Z" fill="#8D9EBB"/>
<path d="M144.247 158.849C144.247 159.691 143.565 160.384 142.713 160.384C141.86 160.384 141.178 159.701 141.178 158.849C141.178 157.996 141.86 157.314 142.713 157.314C143.565 157.314 144.247 157.996 144.247 158.849Z" fill="#8D9EBB"/>
<path d="M65.218 180.331C65.218 181.174 64.536 181.866 63.6835 181.866C62.8309 181.866 62.1489 181.184 62.1489 180.331C62.1489 179.479 62.8309 178.797 63.6835 178.797C64.536 178.797 65.218 179.479 65.218 180.331Z" fill="#8D9EBB"/>
<path d="M260.104 171.125C260.104 171.967 259.422 172.659 258.569 172.659C257.717 172.659 257.035 171.977 257.035 171.125C257.035 170.272 257.717 169.59 258.569 169.59C259.422 169.59 260.104 170.272 260.104 171.125Z" fill="#8D9EBB"/>
<path d="M115.091 49.8963C115.091 50.7388 114.238 51.4309 113.173 51.4309C112.107 51.4309 111.254 50.7489 111.254 49.8963C111.254 49.0438 112.107 48.3618 113.173 48.3618C114.238 48.3618 115.091 49.0438 115.091 49.8963Z" fill="#8D9EBB"/>
<path d="M0.0119568 73.7862C-0.018425 73.7356 0.791756 73.1887 2.34123 72.2064C3.8907 71.224 6.20984 69.7961 9.17713 67.9732C15.1218 64.3375 23.7199 59.1523 34.2826 52.8228L34.5459 52.6709L34.8295 52.7924C43.2554 56.3268 52.9674 60.3879 63.5301 64.8236L63.8745 64.9654L63.9656 65.33C66.9025 77.4624 70.123 90.7798 73.4954 104.705L73.6371 105.282L73.1308 105.576C60.9173 112.776 49.2406 119.673 38.5462 125.972L38.2221 126.164L37.8778 126.023C27.3151 121.496 17.6638 117.354 9.24802 113.748L8.96446 113.627L8.89356 113.333C6.05793 101.211 3.76917 91.3469 2.22983 84.5009C1.46016 81.0779 0.872774 78.4144 0.498065 76.5915C0.123357 74.7787 -0.0488067 73.8166 0.0119568 73.7964C0.0727204 73.7862 0.356284 74.7179 0.842392 76.5105C1.3285 78.303 2.02728 80.9462 2.89823 84.3388C4.64011 91.1342 7.10104 100.968 10.0785 113.05C9.96705 112.918 9.85565 112.786 9.724 112.634C18.16 116.169 27.8518 120.23 38.455 124.666C38.2322 124.676 38.0196 124.696 37.7866 124.706C48.4608 118.377 60.1173 111.45 72.3206 104.219C72.1991 104.502 72.0775 104.786 71.956 105.09C68.6242 91.1545 65.4341 77.827 62.5377 65.6844C62.6896 65.8566 62.8314 66.0389 62.963 66.1908C52.4408 61.674 42.7591 57.5219 34.3636 53.9267C34.556 53.9166 34.7485 53.9064 34.9105 53.8862C24.2769 60.0841 15.5776 65.1173 9.53158 68.5808C6.50353 70.3126 4.14388 71.6393 2.53364 72.5305C0.92341 73.4217 0.0524659 73.8673 0.0220841 73.8065L0.0119568 73.7862Z" fill="#8D9EBB"/>
<path d="M38.1718 125.324C37.9592 125.375 36.8249 121.526 35.164 115.258C33.5032 108.989 31.3157 100.3 28.9965 90.6889C28.6218 89.1192 28.2471 87.5798 27.9028 86.1114C28.0547 86.2937 28.2066 86.476 28.3585 86.6481C20.2668 83.1947 13.1474 80.0654 8.06349 77.7564C2.97961 75.4575 -0.0687004 73.9688 0.0123177 73.7865C0.0933358 73.6042 3.2733 74.7486 8.46858 76.8044C13.6639 78.8501 20.8643 81.8073 28.9662 85.21L29.3307 85.362L29.4219 85.7468C29.7763 87.2051 30.151 88.7546 30.5359 90.3142C32.855 99.925 34.8703 108.655 36.2477 114.994C37.625 121.334 38.3744 125.273 38.1617 125.324H38.1718Z" fill="#8D9EBB"/>
<path d="M28.6723 85.9284C28.4495 85.5536 36.0145 80.6723 45.5646 75.0213C55.1146 69.3703 63.0341 65.1067 63.2569 65.4814C63.4797 65.8561 55.9146 70.7375 46.3646 76.3885C36.8146 82.0294 28.8951 86.3031 28.6723 85.9284Z" fill="#8D9EBB"/>
<path d="M201.321 64.2779C201.291 64.2273 202.101 63.6804 203.65 62.6981C205.21 61.7157 207.519 60.2878 210.486 58.4649C216.431 54.8292 225.029 49.644 235.592 43.3145L235.855 43.1626L236.138 43.2841C244.564 46.8185 254.276 50.8796 264.839 55.3153L265.183 55.4571L265.275 55.8217C268.211 67.9541 271.432 81.2715 274.804 95.1965L274.936 95.7737L274.43 96.0674C262.216 103.268 250.539 110.165 239.845 116.464L239.521 116.656L239.177 116.514C228.614 111.987 218.963 107.845 210.547 104.24L210.263 104.119L210.192 103.825C207.357 91.7026 205.068 81.8386 203.529 74.9926C202.759 71.5696 202.172 68.9061 201.797 67.0832C201.422 65.2704 201.25 64.3083 201.311 64.2881C201.372 64.2779 201.655 65.2096 202.141 67.0022C202.627 68.7947 203.316 71.4379 204.197 74.8305C205.939 81.6259 208.39 91.4595 211.377 103.541C211.266 103.41 211.154 103.278 211.023 103.126C219.459 106.661 229.151 110.722 239.754 115.157C239.531 115.167 239.318 115.188 239.085 115.198C249.76 108.868 261.416 101.941 273.619 94.7104C273.498 94.9939 273.376 95.2775 273.255 95.5712C269.923 81.6361 266.733 68.3086 263.836 56.166C263.988 56.3382 264.13 56.5205 264.262 56.6724C253.74 52.1556 244.048 48.0034 235.662 44.4083C235.855 44.3981 236.047 44.388 236.209 44.3677C225.576 50.5656 216.887 55.5989 210.83 59.0624C207.802 60.7942 205.443 62.1208 203.832 63.012C202.222 63.9032 201.351 64.3488 201.321 64.2881V64.2779Z" fill="#8D9EBB"/>
<path d="M239.471 115.815C239.258 115.866 238.124 112.017 236.463 105.749C234.802 99.4799 232.614 90.7908 230.295 81.18C229.921 79.6103 229.546 78.0709 229.202 76.6025C229.354 76.7848 229.505 76.967 229.657 77.1392C221.566 73.6858 214.446 70.5565 209.362 68.2475C204.278 65.9385 201.23 64.4497 201.311 64.2675C201.392 64.0852 204.572 65.2296 209.767 67.2854C214.963 69.3311 222.163 72.2882 230.265 75.691L230.63 75.8429L230.721 76.2277C231.075 77.6962 231.45 79.2355 231.825 80.7951C234.144 90.4059 236.159 99.1356 237.536 105.475C238.914 111.815 239.663 115.754 239.45 115.805L239.471 115.815Z" fill="#8D9EBB"/>
<path d="M229.971 76.4205C229.748 76.0458 237.313 71.1645 246.863 65.5135C256.413 59.8625 264.333 55.5989 264.556 55.9736C264.779 56.3483 257.213 61.2297 247.663 66.8807C238.113 72.5215 230.194 76.7952 229.971 76.4205Z" fill="#8D9EBB"/>
<defs>
<linearGradient id="paint0_linear_5_3284" x1="167.804" y1="12.5717" x2="107.115" y2="48.7" gradientUnits="userSpaceOnUse">
<stop stop-color="#8D9EBB"/>
<stop offset="1" stop-color="#8D9EBB" stop-opacity="0"/>
</linearGradient>
<linearGradient id="paint1_linear_5_3284" x1="110.686" y1="175.128" x2="49.989" y2="211.246" gradientUnits="userSpaceOnUse">
<stop stop-color="#8D9EBB"/>
<stop offset="1" stop-color="#8D9EBB" stop-opacity="0"/>
</linearGradient>
<linearGradient id="paint2_linear_5_3284" x1="302.679" y1="168.444" x2="241.981" y2="204.562" gradientUnits="userSpaceOnUse">
<stop stop-color="#8D9EBB"/>
<stop offset="1" stop-color="#8D9EBB" stop-opacity="0"/>
</linearGradient>
<linearGradient id="paint3_linear_5_3284" x1="200.162" y1="123.507" x2="139.464" y2="159.635" gradientUnits="userSpaceOnUse">
<stop stop-color="#8D9EBB"/>
<stop offset="1" stop-color="#8D9EBB" stop-opacity="0"/>
</linearGradient>
</defs>
</svg>
