<svg width="576" height="438" viewBox="0 0 576 438" fill="none" xmlns="http://www.w3.org/2000/svg">
<path d="M375.748 137.874C373.321 138.522 370.821 139.504 368.32 140.856C365.375 142.43 362.949 144.264 361.134 146.302C358.226 149.58 356.8 153.34 356.966 157.47C356.966 157.656 356.985 157.822 357.004 158.026C357.782 161.916 360.893 164.064 366.283 164.416C365.764 162.786 365.616 161.045 365.876 159.341C366.487 155.47 369.135 152.229 373.229 150.358C372.951 145.857 374.359 141.338 376.933 137.578C376.544 137.67 376.155 137.763 375.766 137.856L375.748 137.874Z" fill="#EDF1F8"/>
<path d="M386.784 152.91C386.895 152.836 387.024 152.78 387.135 152.706C392.692 149.668 399.304 149.057 405.491 150.613C402.638 146.908 398.434 142.482 392.988 139.704C391.877 139.148 390.766 138.666 389.691 138.296C385.117 140.278 381.819 145.39 382.227 150.094C383.838 150.705 385.376 151.687 386.765 152.928L386.784 152.91Z" fill="#EDF1F8"/>
<path d="M391.697 160.524C392.234 162.21 392.512 163.932 392.493 165.655C392.66 165.711 392.864 165.766 393.03 165.822C401.106 168.378 407.552 174.897 410.793 182.843C412.108 178.787 412.83 174.619 412.849 170.526C412.886 168.489 412.719 166.544 412.404 164.673C407.107 158.82 398.254 157.005 391.697 160.487L391.697 160.524Z" fill="#EDF1F8"/>
<path d="M387.611 208.72C394.168 205.719 399.669 201.404 403.948 195.828C404.633 186.401 398.799 177.158 390.242 174.454C390.112 174.399 389.982 174.38 389.853 174.324C388.426 176.566 386.426 178.566 383.907 180.27C389.797 188.42 390.964 199.181 387.593 208.701L387.611 208.72Z" fill="#EDF1F8"/>
<path d="M359.731 213.356C361.935 213.523 364.121 213.56 366.195 213.486C369.363 213.356 372.419 213.042 375.308 212.523C381.661 204.54 382.143 192.797 376.253 185.166C375.883 184.685 375.512 184.24 375.197 183.851C373.864 184.036 372.493 184.073 371.122 183.962C370.881 195.687 364.177 206.429 354.156 212.597C355.99 212.949 357.879 213.208 359.731 213.356Z" fill="#EDF1F8"/>
<path d="M341.022 208.272C352.858 205.586 362.007 194.918 362.063 183.415C362.063 182.563 362.044 181.73 361.97 180.989C360.377 180.063 358.877 178.97 357.451 177.692C350.579 189.083 337.04 195.695 323.315 195.344C328.501 200.789 334.465 205.16 341.041 208.253L341.022 208.272Z" fill="#EDF1F8"/>
<path d="M349.895 172.701C350.377 171.849 350.877 170.868 351.285 169.867C350.284 168.015 349.488 166.107 348.932 164.144C348.099 164.459 347.302 164.737 346.543 164.94C331.688 169.052 315.593 163.885 304.72 152.716C305.628 164.255 309.221 175.331 315.259 184.963C328.447 189.075 343.431 183.87 349.914 172.72L349.895 172.701Z" fill="#EDF1F8"/>
<path d="M344.164 156.236C345.109 155.995 346.443 155.476 347.961 154.773C348.239 151.642 349.11 148.623 350.554 145.808C349.202 145.308 347.869 144.789 346.795 144.271C342.257 142.104 338.182 139.14 334.644 135.603C325.494 126.453 320.012 113.413 319.604 99.892C317.863 102.337 316.307 104.856 314.881 107.468C313.325 110.357 311.955 113.209 310.825 115.932C307.824 123.119 305.88 130.472 304.99 137.844C312.473 152.254 329.439 160.292 344.146 156.217L344.164 156.236Z" fill="#EDF1F8"/>
<path d="M356.412 138.206C358.579 136.224 361.135 134.409 364.043 132.872C365.265 132.205 366.506 131.631 367.747 131.094C366.951 129.667 366.173 128.186 365.543 126.704C356.764 105.885 362.061 81.2878 377.638 64.4513C359.338 67.7112 342.761 75.8794 329.888 88.1595C325.202 107.33 334.185 128.204 350.726 136.113C352.152 136.798 354.43 137.632 356.412 138.243L356.412 138.206Z" fill="#EDF1F8"/>
<path d="M373.878 123.187C374.508 124.706 375.489 126.502 376.675 128.429C381.342 127.651 385.917 127.854 390.362 129.04C390.418 127.391 390.511 125.817 390.677 124.354C393.622 99.516 413.052 78.1971 437.519 70.8439C422.887 65.1761 408.014 62.4905 393.215 62.8794C373.674 76.2708 365.173 102.517 373.897 123.206L373.878 123.187Z" fill="#EDF1F8"/>
<path d="M399.665 125.416C399.406 127.602 399.314 130.288 399.443 132.936C403.481 135.381 406.889 138.456 409.612 141.438C410.631 139.715 411.705 138.086 412.779 136.641C429.708 113.748 461.603 104.153 489.904 111.932C479.495 96.9667 466.474 85.1683 451.712 77.3335C425.393 79.4265 402.648 100.319 399.684 125.435L399.665 125.416Z" fill="#EDF1F8"/>
<path d="M418.582 154.362C419.619 156.511 420.434 158.919 420.971 161.456C420.99 161.549 421.009 161.641 421.027 161.734C421.083 161.938 421.12 162.16 421.138 162.364C422.916 161.252 424.731 160.215 426.417 159.345C454.144 145.212 489.947 151.343 513.452 172.773C510.988 155.64 505.58 139.119 497.523 124.357C470.592 111.725 436.789 119.337 420.008 142.045C418.471 144.101 416.952 146.583 415.581 149.25C417.489 152.195 418.489 154.27 418.545 154.399L418.582 154.362Z" fill="#EDF1F8"/>
<path d="M421.057 189.926C456.767 185.851 491.885 207.299 507.202 240.991C513.018 223.95 515.648 205.688 514.87 187.462C494.885 162.18 458.156 153.345 430.596 167.421C427.78 168.866 424.52 170.904 421.853 172.867C421.538 178.849 420.094 184.851 417.63 190.463C418.76 190.259 419.908 190.074 421.075 189.944L421.057 189.926Z" fill="#EDF1F8"/>
<path d="M401.585 212.985C438.851 223.543 465.652 261.828 466.264 303.002C470.598 298.89 474.747 294.519 478.747 289.962C488.453 278.849 496.362 266.569 502.307 253.4C491.213 218.856 456.299 195.019 422.107 198.908C418.014 199.371 414.18 200.427 411.124 201.409C407.845 205.65 403.919 209.355 399.455 212.411C400.159 212.596 400.881 212.8 401.622 212.985L401.585 212.985Z" fill="#EDF1F8"/>
<path d="M332.284 223.804C330.191 218.525 327.524 213.302 324.56 208.709C318.374 203.893 312.984 198.021 308.502 191.242C298.444 176.036 293.962 157.329 295.814 138.584C295.814 138.473 295.833 138.344 295.851 138.214C296.74 129.583 298.945 120.933 302.427 112.561C313.984 80.1846 303.186 20.8587 265.105 -22.4827C231.58 -60.638 192.888 -74.8073 182.719 -78.0486C88.4978 26.2486 89.3498 194.021 185.053 289.724C213.929 318.6 249.806 338.807 288.887 348.216C331.099 321.267 349.75 268.127 332.284 223.804Z" fill="#EDF1F8"/>
<path d="M393.404 344.371C397.664 342.667 402.11 340.814 406.462 338.944C406.833 338.758 407.314 338.573 407.759 338.388C423.317 331.609 444.303 321.478 456.935 311.29C460.046 271.653 434.43 231.701 399.128 221.7C394.127 220.292 389.811 219.421 386.032 219.088C383.643 219.884 381.198 220.551 378.661 221.088C376.772 221.496 374.79 221.811 372.771 222.051C383.513 231.387 398.646 249.149 403.11 277.506C408.129 309.197 400.072 331.442 393.386 344.389L393.404 344.371Z" fill="#EDF1F8"/>
<path d="M363.174 352.305C366.231 351.842 372.509 350.749 380.622 348.489C386.679 338.728 400.126 316.465 394.18 278.921C388.401 242.432 362.489 225.077 357.877 222.244C355.136 221.91 347.486 220.743 339.54 217.687C339.948 218.613 340.318 219.539 340.689 220.465C358.674 266.122 341.633 320.28 301.033 350.767C321.815 354.509 342.671 355.028 363.156 352.286L363.174 352.305Z" fill="#EDF1F8"/>
</svg>
