<svg width="115" height="84" viewBox="0 0 115 84" fill="none" xmlns="http://www.w3.org/2000/svg">
<path d="M44.244 59.2646C44.5516 58.7327 44.8145 58.1302 45.0131 57.4637C45.2503 56.6818 45.3528 55.9447 45.3143 55.2782C45.2503 54.2078 44.8465 53.3106 44.103 52.6248C44.071 52.5928 44.0389 52.5671 44.0005 52.5351C43.1929 51.9967 42.2828 52.1634 41.2894 53.035C41.6612 53.2273 41.988 53.5029 42.238 53.8425C42.802 54.618 42.9045 55.6371 42.52 56.6689C43.3468 57.3996 43.8851 58.425 44.0902 59.521C44.1415 59.4377 44.1927 59.3543 44.244 59.271V59.2646Z" fill="#28374C"/>
<path d="M39.7318 58.5725C39.7253 58.6045 39.7126 58.6366 39.7062 58.6686C39.2704 60.1555 38.2321 61.4053 36.8926 62.2064C38.027 62.3538 39.5203 62.3923 40.9431 61.9308C41.2315 61.8347 41.5071 61.7257 41.757 61.604C42.2057 60.4696 41.8917 59.0147 41.0072 58.2712C40.6227 58.4443 40.1868 58.5404 39.7318 58.5661V58.5725Z" fill="#28374C"/>
<path d="M37.5655 58.1048C37.181 57.9062 36.8348 57.6562 36.54 57.355C36.5016 57.3742 36.4567 57.3998 36.4183 57.4191C34.5789 58.374 32.3357 58.3612 30.4001 57.5473C30.8744 58.4766 31.4705 59.3226 32.1755 60.034C32.5216 60.3929 32.8868 60.7005 33.265 60.9697C35.1941 61.0658 37.0399 59.8481 37.5719 58.1113L37.5655 58.1048Z" fill="#28374C"/>
<path d="M29.9322 49.0613C29.317 50.7148 29.1118 52.4132 29.3362 54.118C30.8487 55.8677 33.4572 56.4574 35.4055 55.4447C35.4376 55.4319 35.4632 55.4127 35.4953 55.3999C35.3543 54.7654 35.3543 54.0732 35.4953 53.3425C33.0662 52.9516 31.0026 51.2916 29.9386 49.0613H29.9322Z" fill="#28374C"/>
<path d="M33.9574 43.4344C33.5472 43.7869 33.1626 44.1587 32.8165 44.5304C32.291 45.1008 31.8167 45.684 31.4065 46.2737C31.6885 48.754 33.6369 50.869 35.9762 51.1702C36.1236 51.1894 36.2646 51.2022 36.3864 51.2151C36.585 50.9523 36.8158 50.7087 37.0722 50.4908C35.0854 48.4207 34.3868 45.402 35.0533 42.6013C34.6752 42.8576 34.3035 43.1396 33.9574 43.4344Z" fill="#28374C"/>
<path d="M38.0717 41.0757C36.4886 43.588 36.7514 47.0169 38.7318 49.0165C38.8792 49.1639 39.0267 49.3049 39.1677 49.4203C39.6035 49.3049 40.0521 49.2344 40.52 49.2088C39.7381 46.0491 40.9366 42.5626 43.372 40.2489C41.5326 40.204 39.7445 40.4796 38.0717 41.0821V41.0757Z" fill="#28374C"/>
<path d="M42.6928 48.7667C42.7569 48.9974 42.8402 49.2538 42.9427 49.4973C43.4362 49.6447 43.9041 49.837 44.3399 50.0805C44.4296 49.8818 44.5194 49.696 44.6155 49.5293C46.4742 46.2479 50.153 44.3572 53.9664 44.4085C51.8129 42.5691 49.2749 41.2745 46.5638 40.6528C43.5708 42.223 41.8789 45.7159 42.6864 48.7667H42.6928Z" fill="#28374C"/>
<path d="M46.5319 50.6253C46.4102 50.8304 46.2692 51.1508 46.1282 51.5354C46.6217 52.125 46.9934 52.7979 47.2305 53.535C47.551 53.3876 47.8714 53.2466 48.147 53.1504C49.307 52.7403 50.5247 52.548 51.7489 52.548C54.915 52.548 58.1195 53.8554 60.5294 56.1243C60.4076 55.4 60.2409 54.695 60.0358 53.9964C59.8051 53.2274 59.5488 52.4967 59.2732 51.8302C58.549 50.0677 57.6132 48.459 56.4916 47.0298C52.7038 45.8313 48.3778 47.3759 46.5384 50.6253H46.5319Z" fill="#28374C"/>
<path d="M47.5314 55.8616C47.4994 56.5794 47.3712 57.3357 47.1341 58.1048C47.0379 58.4316 46.9226 58.7457 46.8008 59.0533C47.1853 59.1622 47.5763 59.284 47.9416 59.4314C53.0625 61.5144 56.4016 66.6865 56.6195 72.2944C59.2216 68.5644 60.6765 64.2831 60.779 59.9313C58.2731 55.8039 53.1073 53.7466 48.8773 55.2399C48.512 55.3681 47.9736 55.618 47.525 55.8552L47.5314 55.8616Z" fill="#28374C"/>
<path d="M47.1085 61.4823C46.7368 61.3284 46.2562 61.1874 45.7178 61.0593C45.0448 62.0014 44.2181 62.7577 43.2439 63.3217C43.5195 63.6165 43.7758 63.9049 44.0001 64.1869C47.7879 68.9937 48.1148 76.0437 45.1538 81.5491C48.666 79.9981 51.7039 77.8895 54.197 75.2618C55.2609 69.5641 52.1909 63.5524 47.1021 61.4823H47.1085Z" fill="#28374C"/>
<path d="M42.2635 65.5584C41.9302 65.1354 41.4816 64.6547 41.0009 64.2189C39.8793 64.4945 38.7577 64.5521 37.7707 64.5073C37.8925 64.9816 37.9886 65.4494 38.0527 65.8852C39.0845 72.775 35.2263 79.9532 28.9839 83.5038C33.3741 84.2921 37.6681 84.0806 41.5777 82.8821C45.7692 77.9664 46.0897 70.4165 42.2571 65.5584H42.2635Z" fill="#28374C"/>
<path d="M33.983 63.8217C33.4318 63.6294 32.8742 63.3538 32.3423 63.0077C32.3231 62.9949 32.3038 62.9821 32.2845 62.9692C32.2397 62.9436 32.1948 62.9116 32.1564 62.8795C32.041 63.3794 31.9064 63.8729 31.7654 64.3151C29.4133 71.5574 22.1582 76.6911 14.384 77.05C17.7744 79.588 21.5686 81.5107 25.5166 82.6708C32.3615 80.1968 36.8927 73.0315 35.8673 66.1994C35.7775 65.5777 35.6109 64.8856 35.3866 64.187C34.547 64.0075 34.015 63.8216 33.983 63.8088V63.8217Z" fill="#28374C"/>
<path d="M27.4005 58.0981C21.9272 64.9815 12.1406 67.3464 3.66138 64.1675C5.60333 68.1219 8.30796 71.7366 11.5958 74.7553C19.4277 75.6718 27.3108 70.8458 29.6437 63.642C29.8809 62.9049 30.0924 61.9884 30.2141 61.1873C29.2335 60.0978 28.4452 58.8095 27.9005 57.4124C27.7402 57.6431 27.5736 57.8738 27.3941 58.0981H27.4005Z" fill="#28374C"/>
<path d="M26.779 50.7407C18.5049 55.3616 7.24417 53.3748 0.0147333 46.3569C-0.0237212 47.8181 0.0147489 49.2922 0.110885 50.7727C0.35443 54.3746 1.11071 57.8676 2.36048 61.1747C10.2565 65.2316 20.4212 63.3153 25.6639 56.7268C26.292 55.9384 26.7727 55.0924 27.1316 54.3939C26.9649 53.0928 27.0033 51.7725 27.2469 50.4715C27.0931 50.5612 26.9329 50.651 26.7726 50.7471L26.779 50.7407Z" fill="#28374C"/>
<path d="M36.899 36.8778C38.1744 37.429 39.5396 37.8712 40.847 38.1532C42.7505 37.9161 44.6988 37.9994 46.6472 38.3968C51.0182 39.2876 55.0303 41.7487 57.9528 45.3122C57.972 45.3314 57.9912 45.357 58.0105 45.3827C59.35 47.0298 60.4651 48.9077 61.3111 50.9586C64.913 58.5597 77.0455 66.9556 91.1326 67.8657C103.534 68.6669 112.68 64.424 115 63.2256C113.257 28.8793 84.0826 0 50.9669 0C40.9751 0 31.2718 2.71104 22.8823 7.84471C20.2418 19.8105 26.2087 32.2313 36.899 36.8778Z" fill="#28374C"/>
<path d="M5.46221 26.5912C5.01999 27.623 4.57139 28.7126 4.14198 29.7893C4.10994 29.8855 4.05862 30.0008 4.01376 30.1098C2.4948 33.9744 0.616969 39.3581 0.19397 43.3061C6.51332 50.7021 17.8574 53.1825 25.6957 48.8051C26.8045 48.1834 27.7017 47.5873 28.4132 46.9913C28.6887 46.4401 28.9964 45.9017 29.3424 45.3698C29.5988 44.9724 29.8873 44.5751 30.1949 44.1841C26.7212 44.4277 21.0299 43.9726 15.3515 39.8388C9.00006 35.2242 6.54535 29.9816 5.46221 26.5848V26.5912Z" fill="#28374C"/>
<path d="M9.32078 19.9899C8.87214 20.5988 7.97491 21.8742 6.96228 23.6687C7.60319 26.4054 9.12855 32.5837 16.6528 38.0507C23.9656 43.3638 31.4513 41.8833 32.7396 41.5757C33.2715 41.1591 34.7968 40.0375 36.7003 39.1915C36.4696 39.1018 36.2453 39.0056 36.021 38.9095C25.0102 34.1219 18.5883 21.8037 20.338 9.50464C16.0952 12.4528 12.3971 15.9714 9.32719 19.9899H9.32078Z" fill="#28374C"/>
</svg>
