<svg width="151" height="109" viewBox="0 0 151 109" fill="none" xmlns="http://www.w3.org/2000/svg">
<path d="M58.3906 76.9278C58.7899 76.2373 59.131 75.4553 59.3889 74.5901C59.6967 73.5752 59.8298 72.6184 59.7799 71.7532C59.6967 70.3639 59.1726 69.1992 58.2076 68.3091C58.166 68.2675 58.1243 68.2342 58.0744 68.1926C57.0262 67.4938 55.8449 67.7101 54.5554 68.8415C55.0379 69.0911 55.4622 69.4488 55.7866 69.8897C56.5187 70.8964 56.6519 72.2191 56.1527 73.5585C57.2259 74.5069 57.9247 75.838 58.1909 77.2606C58.2575 77.1524 58.324 77.0443 58.3906 76.9361V76.9278Z" fill="url(#paint0_radial_3_1230)"/>
<path d="M52.5336 76.0293C52.5253 76.0709 52.5087 76.1125 52.5004 76.1541C51.9347 78.0842 50.587 79.7064 48.8483 80.7463C50.3208 80.9376 52.2591 80.9876 54.106 80.3886C54.4803 80.2638 54.8381 80.1224 55.1625 79.9643C55.7449 78.4918 55.3373 76.6033 54.1892 75.6383C53.6901 75.8629 53.1243 75.9877 52.5336 76.021V76.0293Z" fill="url(#paint1_radial_3_1230)"/>
<path d="M49.7219 75.422C49.2227 75.1641 48.7734 74.8396 48.3907 74.4486C48.3408 74.4736 48.2826 74.5068 48.2327 74.5318C45.8451 75.7714 42.9334 75.7547 40.421 74.6982C41.0366 75.9045 41.8103 77.0026 42.7254 77.926C43.1746 78.3919 43.6488 78.7912 44.1396 79.1406C46.6437 79.2654 49.0396 77.6848 49.7301 75.4303L49.7219 75.422Z" fill="url(#paint2_radial_3_1230)"/>
<path d="M39.8136 63.6836C39.015 65.83 38.7487 68.0345 39.0399 70.2475C41.0032 72.5186 44.3891 73.284 46.9181 71.9695C46.9597 71.9529 46.993 71.9279 47.0346 71.9113C46.8516 71.0877 46.8516 70.1892 47.0346 69.2408C43.8816 68.7334 41.2029 66.5787 39.8219 63.6836H39.8136Z" fill="url(#paint3_radial_3_1230)"/>
<path d="M45.0381 56.3793C44.5056 56.8369 44.0065 57.3194 43.5572 57.8019C42.875 58.5423 42.2594 59.2994 41.7269 60.0648C42.093 63.2843 44.622 66.0296 47.6585 66.4206C47.8499 66.4456 48.0329 66.4622 48.191 66.4789C48.4489 66.1378 48.7484 65.8217 49.0812 65.5388C46.5022 62.8517 45.5954 58.9333 46.4606 55.2979C45.9698 55.6306 45.4873 55.9967 45.0381 56.3793Z" fill="url(#paint4_radial_3_1230)"/>
<path d="M50.379 53.3179C48.3241 56.579 48.6652 61.0298 51.2359 63.6254C51.4272 63.8167 51.6186 63.9998 51.8016 64.1495C52.3673 63.9998 52.9497 63.9082 53.557 63.875C52.542 59.7736 54.0977 55.2479 57.259 52.2447C54.8714 52.1865 52.5503 52.5442 50.379 53.3262V53.3179Z" fill="url(#paint5_radial_3_1230)"/>
<path d="M56.3772 63.3009C56.4604 63.6004 56.5685 63.9332 56.7016 64.2493C57.3421 64.4407 57.9495 64.6902 58.5152 65.0064C58.6317 64.7485 58.7482 64.5072 58.873 64.2909C61.2855 60.0315 66.0607 57.5773 71.0107 57.6439C68.2154 55.2562 64.921 53.5758 61.4019 52.7688C57.5169 54.807 55.3207 59.341 56.3689 63.3009H56.3772Z" fill="url(#paint6_radial_3_1230)"/>
<path d="M61.3605 65.7135C61.2024 65.9797 61.0194 66.3957 60.8364 66.8948C61.4769 67.6602 61.9594 68.5337 62.2672 69.4904C62.6832 69.2991 63.0991 69.1161 63.4568 68.9913C64.9626 68.4588 66.5433 68.2093 68.1322 68.2093C72.2419 68.2093 76.4016 69.9064 79.5296 72.8514C79.3716 71.9113 79.1552 70.9962 78.889 70.0894C78.5895 69.0911 78.2568 68.1427 77.8991 67.2775C76.959 64.9897 75.7443 62.9016 74.2885 61.0464C69.3718 59.4907 63.7564 61.4957 61.3688 65.7135H61.3605Z" fill="url(#paint7_radial_3_1230)"/>
<path d="M62.6583 72.5103C62.6167 73.442 62.4503 74.4237 62.1425 75.422C62.0177 75.8463 61.868 76.2539 61.7099 76.6532C62.2091 76.7947 62.7165 76.9527 63.1907 77.1441C69.8378 79.8478 74.1721 86.5614 74.455 93.8407C77.8326 88.999 79.7211 83.4417 79.8542 77.793C76.6013 72.4354 69.896 69.7649 64.4053 71.7033C63.9311 71.8697 63.2323 72.1941 62.65 72.502L62.6583 72.5103Z" fill="url(#paint8_radial_3_1230)"/>
<path d="M62.1089 79.8062C61.6264 79.6066 61.0025 79.4235 60.3037 79.2571C59.4302 80.4801 58.3571 81.4617 57.0925 82.1938C57.4503 82.5765 57.783 82.9509 58.0741 83.3169C62.9908 89.5563 63.4151 98.7075 59.5716 105.854C64.1306 103.84 68.0739 101.103 71.31 97.6925C72.691 90.2967 68.7061 82.4933 62.1006 79.8062H62.1089Z" fill="url(#paint9_radial_3_1230)"/>
<path d="M55.8198 85.0972C55.3872 84.5482 54.8049 83.9242 54.1809 83.3585C52.7251 83.7162 51.2692 83.7911 49.988 83.7329C50.1461 84.3485 50.2708 84.9558 50.354 85.5215C51.6934 94.4647 46.6853 103.782 38.5824 108.391C44.2811 109.414 49.8549 109.14 54.9296 107.584C60.3703 101.203 60.7864 91.4032 55.8115 85.0972H55.8198Z" fill="url(#paint10_radial_3_1230)"/>
<path d="M45.0712 82.8427C44.3558 82.5932 43.6321 82.2354 42.9416 81.7862C42.9166 81.7696 42.8916 81.7529 42.8666 81.7363C42.8084 81.703 42.7502 81.6614 42.7003 81.6198C42.5505 82.2687 42.3758 82.9093 42.1928 83.4833C39.1397 92.884 29.7223 99.5477 19.6311 100.014C24.032 103.308 28.9569 105.804 34.0816 107.31C42.9665 104.098 48.8482 94.7975 47.5171 85.9292C47.4007 85.1222 47.1844 84.2237 46.8932 83.3169C45.8034 83.084 45.1128 82.8427 45.0712 82.8261V82.8427Z" fill="url(#paint11_radial_3_1230)"/>
<path d="M36.5276 75.4137C29.423 84.3485 16.7196 87.4183 5.71326 83.292C8.23398 88.4249 11.7447 93.117 16.0125 97.0353C26.1785 98.225 36.4111 91.9606 39.4393 82.6098C39.7471 81.6531 40.0216 80.4634 40.1797 79.4235C38.9069 78.0093 37.8836 76.3371 37.1765 74.5235C36.9685 74.823 36.7522 75.1225 36.5192 75.4137H36.5276Z" fill="url(#paint12_radial_3_1230)"/>
<path d="M35.7207 65.8633C24.9806 71.8614 10.3637 69.2825 0.979635 60.1729C0.929719 62.0697 0.979655 63.9831 1.10444 65.9049C1.42057 70.5803 2.40225 75.1142 4.0245 79.4069C14.2738 84.673 27.468 82.1856 34.2732 73.6334C35.0884 72.6101 35.7124 71.512 36.1783 70.6052C35.962 68.9164 36.0118 67.2026 36.328 65.5138C36.1283 65.6303 35.9203 65.7468 35.7124 65.8716L35.7207 65.8633Z" fill="url(#paint13_radial_3_1230)"/>
<path d="M48.8567 47.8688C50.5122 48.5842 52.2842 49.1582 53.9813 49.5243C56.4522 49.2165 58.9811 49.3246 61.5102 49.8404C67.1839 50.9968 72.3917 54.1914 76.1853 58.8169C76.2102 58.8418 76.2352 58.8751 76.2601 58.9084C77.9988 61.0464 79.4464 63.4839 80.5445 66.1461C85.2199 76.0127 100.968 86.9109 119.254 88.0922C135.352 89.1321 147.223 83.6248 150.235 82.0691C147.972 37.4864 110.103 0 67.1173 0C54.1477 0 41.5524 3.51903 30.6626 10.1827C27.235 25.7147 34.9802 41.8373 48.8567 47.8688Z" fill="url(#paint14_radial_3_1230)"/>
<path d="M8.05065 34.5164C7.47663 35.8558 6.89433 37.27 6.33695 38.6677C6.29535 38.7925 6.22873 38.9422 6.1705 39.0836C4.19885 44.1001 1.76135 51.0883 1.21228 56.2129C9.41503 65.8133 24.1401 69.0328 34.3145 63.3508C35.7537 62.5438 36.9184 61.7701 37.8418 60.9964C38.1995 60.281 38.5988 59.5822 39.0481 58.8917C39.3808 58.3759 39.7553 57.8601 40.1546 57.3526C35.6456 57.6688 28.2581 57.0781 20.8872 51.7122C12.6429 45.7224 9.4566 38.9172 8.05065 34.5081V34.5164Z" fill="url(#paint15_radial_3_1230)"/>
<path d="M13.059 25.9476C12.4766 26.738 11.312 28.3935 9.99756 30.7229C10.8295 34.2752 12.8094 42.2949 22.5762 49.3912C32.0684 56.2878 41.7853 54.3661 43.4574 53.9668C44.1479 53.426 46.1278 51.9701 48.5986 50.872C48.2991 50.7555 48.008 50.6307 47.7169 50.506C33.4244 44.2915 25.0886 28.302 27.3598 12.3374C21.8524 16.1642 17.0522 20.7315 13.0673 25.9476H13.059Z" fill="url(#paint16_radial_3_1230)"/>
<g opacity="0.3">
<path style="mix-blend-mode:overlay" opacity="0.3" d="M58.3905 76.9278C58.7898 76.2373 59.131 75.4553 59.3889 74.5901C59.6967 73.5752 59.8298 72.6184 59.7799 71.7532C59.6967 70.3639 59.1725 69.1992 58.2075 68.3091C58.1659 68.2675 58.1243 68.2342 58.0744 68.1926C57.0261 67.4938 55.8448 67.7101 54.5554 68.8415C55.0379 69.0911 55.4621 69.4488 55.7866 69.8897C56.5187 70.8964 56.6518 72.2191 56.1527 73.5585C57.2259 74.5069 57.9246 75.838 58.1909 77.2606C58.2574 77.1524 58.324 77.0443 58.3905 76.9361V76.9278Z" fill="url(#paint17_linear_3_1230)"/>
<path style="mix-blend-mode:overlay" opacity="0.3" d="M52.5336 76.0293C52.5252 76.0709 52.5087 76.1125 52.5004 76.1541C51.9346 78.0842 50.5869 79.7064 48.8482 80.7463C50.3207 80.9376 52.259 80.9876 54.1059 80.3886C54.4803 80.2638 54.838 80.1224 55.1625 79.9643C55.7448 78.4918 55.3372 76.6033 54.1892 75.6383C53.69 75.8629 53.1242 75.9877 52.5336 76.021V76.0293Z" fill="url(#paint18_linear_3_1230)"/>
<path style="mix-blend-mode:overlay" opacity="0.3" d="M49.7218 75.422C49.2227 75.1641 48.7734 74.8396 48.3907 74.4486C48.3408 74.4736 48.2826 74.5068 48.2327 74.5318C45.845 75.7714 42.9333 75.7547 40.4209 74.6982C41.0365 75.9045 41.8102 77.0026 42.7253 77.926C43.1746 78.3919 43.6487 78.7912 44.1396 79.1406C46.6436 79.2654 49.0396 77.6848 49.7301 75.4303L49.7218 75.422Z" fill="url(#paint19_linear_3_1230)"/>
<path style="mix-blend-mode:overlay" opacity="0.3" d="M39.8135 63.6836C39.0149 65.83 38.7486 68.0345 39.0398 70.2475C41.0031 72.5186 44.389 73.284 46.9181 71.9695C46.9597 71.9529 46.993 71.9279 47.0346 71.9113C46.8515 71.0877 46.8515 70.1892 47.0346 69.2408C43.8816 68.7334 41.2029 66.5787 39.8219 63.6836H39.8135Z" fill="url(#paint20_linear_3_1230)"/>
<path style="mix-blend-mode:overlay" opacity="0.3" d="M45.0381 56.3793C44.5056 56.8369 44.0065 57.3194 43.5572 57.8019C42.875 58.5423 42.2594 59.2994 41.7269 60.0648C42.093 63.2843 44.622 66.0296 47.6585 66.4206C47.8499 66.4456 48.0329 66.4622 48.191 66.4789C48.4489 66.1378 48.7484 65.8217 49.0812 65.5388C46.5022 62.8517 45.5954 58.9333 46.4606 55.2979C45.9698 55.6306 45.4873 55.9967 45.0381 56.3793Z" fill="url(#paint21_linear_3_1230)"/>
<path style="mix-blend-mode:overlay" opacity="0.3" d="M50.3789 53.3179C48.3241 56.579 48.6652 61.0298 51.2358 63.6254C51.4272 63.8167 51.6185 63.9998 51.8016 64.1495C52.3673 63.9998 52.9496 63.9082 53.5569 63.875C52.542 59.7736 54.0976 55.2479 57.2589 52.2447C54.8713 52.1865 52.5502 52.5442 50.3789 53.3262V53.3179Z" fill="url(#paint22_linear_3_1230)"/>
<path style="mix-blend-mode:overlay" opacity="0.3" d="M56.3771 63.3009C56.4603 63.6004 56.5684 63.9332 56.7015 64.2493C57.3421 64.4407 57.9494 64.6902 58.5151 65.0064C58.6316 64.7485 58.7481 64.5072 58.8729 64.2909C61.2855 60.0315 66.0607 57.5773 71.0106 57.6439C68.2154 55.2562 64.9209 53.5758 61.4019 52.7688C57.5168 54.807 55.3206 59.341 56.3688 63.3009H56.3771Z" fill="url(#paint23_linear_3_1230)"/>
<path style="mix-blend-mode:overlay" opacity="0.3" d="M61.3604 65.7135C61.2024 65.9797 61.0193 66.3957 60.8363 66.8948C61.4769 67.6602 61.9594 68.5337 62.2672 69.4904C62.6831 69.2991 63.099 69.1161 63.4568 68.9913C64.9626 68.4588 66.5432 68.2093 68.1322 68.2093C72.2419 68.2093 76.4015 69.9064 79.5296 72.8514C79.3715 71.9113 79.1552 70.9962 78.889 70.0894C78.5895 69.0911 78.2568 68.1427 77.899 67.2775C76.959 64.9897 75.7443 62.9016 74.2884 61.0464C69.3718 59.4907 63.7564 61.4957 61.3687 65.7135H61.3604Z" fill="url(#paint24_linear_3_1230)"/>
<path style="mix-blend-mode:overlay" opacity="0.3" d="M62.6582 72.5103C62.6166 73.442 62.4503 74.4237 62.1425 75.422C62.0177 75.8463 61.8679 76.2539 61.7098 76.6532C62.209 76.7947 62.7165 76.9527 63.1907 77.1441C69.8377 79.8478 74.1721 86.5614 74.4549 93.8407C77.8325 88.999 79.721 83.4417 79.8541 77.793C76.6013 72.4354 69.8959 69.7649 64.4053 71.7033C63.9311 71.8697 63.2323 72.1941 62.6499 72.502L62.6582 72.5103Z" fill="url(#paint25_linear_3_1230)"/>
<path style="mix-blend-mode:overlay" opacity="0.3" d="M62.1089 79.8062C61.6264 79.6066 61.0025 79.4235 60.3037 79.2571C59.4302 80.4801 58.357 81.4617 57.0925 82.1938C57.4502 82.5765 57.7829 82.9509 58.0741 83.3169C62.9907 89.5563 63.4151 98.7075 59.5716 105.854C64.1305 103.84 68.0738 101.103 71.31 97.6925C72.691 90.2967 68.706 82.4933 62.1006 79.8062H62.1089Z" fill="url(#paint26_linear_3_1230)"/>
<path style="mix-blend-mode:overlay" opacity="0.3" d="M55.8197 85.0972C55.3871 84.5482 54.8048 83.9242 54.1809 83.3585C52.725 83.7162 51.2691 83.7911 49.988 83.7329C50.146 84.3485 50.2708 84.9558 50.3539 85.5215C51.6933 94.4647 46.6853 103.782 38.5823 108.391C44.281 109.414 49.8548 109.14 54.9295 107.584C60.3703 101.203 60.7863 91.4032 55.8114 85.0972H55.8197Z" fill="url(#paint27_linear_3_1230)"/>
<path style="mix-blend-mode:overlay" opacity="0.3" d="M45.0712 82.8427C44.3557 82.5932 43.632 82.2354 42.9415 81.7862C42.9165 81.7696 42.8915 81.7529 42.8666 81.7363C42.8083 81.703 42.7501 81.6614 42.7002 81.6198C42.5505 82.2687 42.3758 82.9093 42.1928 83.4833C39.1396 92.884 29.7223 99.5477 19.631 100.014C24.0319 103.308 28.9569 105.804 34.0815 107.31C42.9664 104.098 48.8481 94.7975 47.5171 85.9292C47.4006 85.1222 47.1843 84.2237 46.8931 83.3169C45.8033 83.084 45.1128 82.8427 45.0712 82.8261V82.8427Z" fill="url(#paint28_linear_3_1230)"/>
<path style="mix-blend-mode:overlay" opacity="0.3" d="M36.5275 75.4137C29.4229 84.3485 16.7195 87.4183 5.7132 83.292C8.23392 88.4249 11.7446 93.117 16.0124 97.0353C26.1785 98.225 36.411 91.9606 39.4392 82.6098C39.747 81.6531 40.0216 80.4634 40.1796 79.4235C38.9068 78.0093 37.8836 76.3371 37.1764 74.5235C36.9684 74.823 36.7521 75.1225 36.5192 75.4137H36.5275Z" fill="url(#paint29_linear_3_1230)"/>
<path style="mix-blend-mode:overlay" opacity="0.3" d="M35.7206 65.8633C24.9805 71.8614 10.3636 69.2825 0.979574 60.1729C0.929658 62.0697 0.979594 63.9831 1.10438 65.9049C1.42051 70.5803 2.40219 75.1142 4.02444 79.4069C14.2737 84.673 27.468 82.1856 34.2731 73.6334C35.0884 72.6101 35.7123 71.512 36.1782 70.6052C35.9619 68.9164 36.0118 67.2026 36.3279 65.5138C36.1283 65.6303 35.9203 65.7468 35.7123 65.8716L35.7206 65.8633Z" fill="url(#paint30_linear_3_1230)"/>
<path style="mix-blend-mode:overlay" opacity="0.3" d="M48.8566 47.8688C50.5121 48.5842 52.2842 49.1582 53.9813 49.5243C56.4521 49.2165 58.9811 49.3246 61.5101 49.8404C67.1838 50.9968 72.3917 54.1914 76.1852 58.8169C76.2102 58.8418 76.2351 58.8751 76.2601 58.9084C77.9988 61.0464 79.4463 63.4839 80.5445 66.1461C85.2199 76.0127 100.968 86.9109 119.254 88.0922C135.352 89.1321 147.223 83.6248 150.235 82.0691C147.972 37.4864 110.103 0 67.1173 0C54.1476 0 41.5523 3.51903 30.6625 10.1827C27.235 25.7147 34.9802 41.8373 48.8566 47.8688Z" fill="url(#paint31_linear_3_1230)"/>
<path style="mix-blend-mode:overlay" opacity="0.3" d="M8.05059 34.5164C7.47656 35.8558 6.89427 37.27 6.33688 38.6677C6.29529 38.7925 6.22867 38.9422 6.17044 39.0836C4.19879 44.1001 1.76129 51.0883 1.21222 56.2129C9.41497 65.8133 24.14 69.0328 34.3144 63.3508C35.7536 62.5438 36.9183 61.7701 37.8418 60.9964C38.1995 60.281 38.5988 59.5822 39.048 58.8917C39.3808 58.3759 39.7552 57.8601 40.1545 57.3526C35.6455 57.6688 28.258 57.0781 20.8872 51.7122C12.6428 45.7224 9.45654 38.9172 8.05059 34.5081V34.5164Z" fill="url(#paint32_linear_3_1230)"/>
<path style="mix-blend-mode:overlay" opacity="0.3" d="M13.0589 25.9476C12.4766 26.738 11.3119 28.3935 9.9975 30.7229C10.8294 34.2752 12.8094 42.2949 22.5761 49.3912C32.0684 56.2878 41.7852 54.3661 43.4574 53.9668C44.1479 53.426 46.1278 51.9701 48.5986 50.872C48.2991 50.7555 48.008 50.6307 47.7168 50.506C33.4244 44.2915 25.0885 28.302 27.3597 12.3374C21.8524 16.1642 17.0521 20.7315 13.0672 25.9476H13.0589Z" fill="url(#paint33_linear_3_1230)"/>
</g>
<defs>
<radialGradient id="paint0_radial_3_1230" cx="0" cy="0" r="1" gradientUnits="userSpaceOnUse" gradientTransform="translate(83.7727 93.6494) rotate(90) scale(132.949 132.95)">
<stop stop-color="white"/>
<stop offset="1" stop-color="#AABEDE"/>
</radialGradient>
<radialGradient id="paint1_radial_3_1230" cx="0" cy="0" r="1" gradientUnits="userSpaceOnUse" gradientTransform="translate(83.7723 93.6494) rotate(90) scale(132.949 132.949)">
<stop stop-color="white"/>
<stop offset="1" stop-color="#AABEDE"/>
</radialGradient>
<radialGradient id="paint2_radial_3_1230" cx="0" cy="0" r="1" gradientUnits="userSpaceOnUse" gradientTransform="translate(83.7722 93.6494) rotate(90) scale(132.949 132.949)">
<stop stop-color="white"/>
<stop offset="1" stop-color="#AABEDE"/>
</radialGradient>
<radialGradient id="paint3_radial_3_1230" cx="0" cy="0" r="1" gradientUnits="userSpaceOnUse" gradientTransform="translate(83.7722 93.6494) rotate(90) scale(132.949 132.949)">
<stop stop-color="white"/>
<stop offset="1" stop-color="#AABEDE"/>
</radialGradient>
<radialGradient id="paint4_radial_3_1230" cx="0" cy="0" r="1" gradientUnits="userSpaceOnUse" gradientTransform="translate(83.7727 93.6494) rotate(90) scale(132.949 132.951)">
<stop stop-color="white"/>
<stop offset="1" stop-color="#AABEDE"/>
</radialGradient>
<radialGradient id="paint5_radial_3_1230" cx="0" cy="0" r="1" gradientUnits="userSpaceOnUse" gradientTransform="translate(83.7723 93.6494) rotate(90) scale(132.949 132.949)">
<stop stop-color="white"/>
<stop offset="1" stop-color="#AABEDE"/>
</radialGradient>
<radialGradient id="paint6_radial_3_1230" cx="0" cy="0" r="1" gradientUnits="userSpaceOnUse" gradientTransform="translate(83.7723 93.6494) rotate(90) scale(132.949 132.949)">
<stop stop-color="white"/>
<stop offset="1" stop-color="#AABEDE"/>
</radialGradient>
<radialGradient id="paint7_radial_3_1230" cx="0" cy="0" r="1" gradientUnits="userSpaceOnUse" gradientTransform="translate(83.7724 93.6494) rotate(90) scale(132.949 132.949)">
<stop stop-color="white"/>
<stop offset="1" stop-color="#AABEDE"/>
</radialGradient>
<radialGradient id="paint8_radial_3_1230" cx="0" cy="0" r="1" gradientUnits="userSpaceOnUse" gradientTransform="translate(83.7725 93.6494) rotate(90) scale(132.949 132.95)">
<stop stop-color="white"/>
<stop offset="1" stop-color="#AABEDE"/>
</radialGradient>
<radialGradient id="paint9_radial_3_1230" cx="0" cy="0" r="1" gradientUnits="userSpaceOnUse" gradientTransform="translate(83.7722 93.6494) rotate(90) scale(132.949 132.949)">
<stop stop-color="white"/>
<stop offset="1" stop-color="#AABEDE"/>
</radialGradient>
<radialGradient id="paint10_radial_3_1230" cx="0" cy="0" r="1" gradientUnits="userSpaceOnUse" gradientTransform="translate(83.7723 93.6494) rotate(90) scale(132.949 132.949)">
<stop stop-color="white"/>
<stop offset="1" stop-color="#AABEDE"/>
</radialGradient>
<radialGradient id="paint11_radial_3_1230" cx="0" cy="0" r="1" gradientUnits="userSpaceOnUse" gradientTransform="translate(83.7723 93.6494) rotate(90) scale(132.949 132.949)">
<stop stop-color="white"/>
<stop offset="1" stop-color="#AABEDE"/>
</radialGradient>
<radialGradient id="paint12_radial_3_1230" cx="0" cy="0" r="1" gradientUnits="userSpaceOnUse" gradientTransform="translate(83.7723 93.6494) rotate(90) scale(132.949 132.949)">
<stop stop-color="white"/>
<stop offset="1" stop-color="#AABEDE"/>
</radialGradient>
<radialGradient id="paint13_radial_3_1230" cx="0" cy="0" r="1" gradientUnits="userSpaceOnUse" gradientTransform="translate(83.7724 93.6494) rotate(90) scale(132.949 132.949)">
<stop stop-color="white"/>
<stop offset="1" stop-color="#AABEDE"/>
</radialGradient>
<radialGradient id="paint14_radial_3_1230" cx="0" cy="0" r="1" gradientUnits="userSpaceOnUse" gradientTransform="translate(83.7724 93.6494) rotate(90) scale(132.949 132.949)">
<stop stop-color="white"/>
<stop offset="1" stop-color="#AABEDE"/>
</radialGradient>
<radialGradient id="paint15_radial_3_1230" cx="0" cy="0" r="1" gradientUnits="userSpaceOnUse" gradientTransform="translate(83.7723 93.6494) rotate(90) scale(132.949 132.95)">
<stop stop-color="white"/>
<stop offset="1" stop-color="#AABEDE"/>
</radialGradient>
<radialGradient id="paint16_radial_3_1230" cx="0" cy="0" r="1" gradientUnits="userSpaceOnUse" gradientTransform="translate(83.7722 93.6494) rotate(90) scale(132.949 132.949)">
<stop stop-color="white"/>
<stop offset="1" stop-color="#AABEDE"/>
</radialGradient>
<linearGradient id="paint17_linear_3_1230" x1="52.3924" y1="73.9911" x2="59.4388" y2="71.8947" gradientUnits="userSpaceOnUse">
<stop offset="0.25"/>
<stop offset="1" stop-opacity="0"/>
</linearGradient>
<linearGradient id="paint18_linear_3_1230" x1="48.582" y1="73.9661" x2="53.2408" y2="80.555" gradientUnits="userSpaceOnUse">
<stop offset="0.25"/>
<stop offset="1" stop-opacity="0"/>
</linearGradient>
<linearGradient id="paint19_linear_3_1230" x1="46.4107" y1="69.3656" x2="44.1312" y2="79.0574" gradientUnits="userSpaceOnUse">
<stop offset="0.25"/>
<stop offset="1" stop-opacity="0"/>
</linearGradient>
<linearGradient id="paint20_linear_3_1230" x1="52.1176" y1="64.998" x2="40.687" y2="68.7417" gradientUnits="userSpaceOnUse">
<stop offset="0.25"/>
<stop offset="1" stop-opacity="0"/>
</linearGradient>
<linearGradient id="paint21_linear_3_1230" x1="55.4954" y1="63.1762" x2="43.3326" y2="59.8817" gradientUnits="userSpaceOnUse">
<stop offset="0.25"/>
<stop offset="1" stop-opacity="0"/>
</linearGradient>
<linearGradient id="paint22_linear_3_1230" x1="48.4239" y1="67.2276" x2="52.7166" y2="56.5291" gradientUnits="userSpaceOnUse">
<stop offset="0.25"/>
<stop offset="1" stop-opacity="0"/>
</linearGradient>
<linearGradient id="paint23_linear_3_1230" x1="50.0712" y1="64.3076" x2="61.4103" y2="58.0848" gradientUnits="userSpaceOnUse">
<stop offset="0.25"/>
<stop offset="1" stop-opacity="0"/>
</linearGradient>
<linearGradient id="paint24_linear_3_1230" x1="57.9828" y1="60.9466" x2="70.6031" y2="66.2542" gradientUnits="userSpaceOnUse">
<stop offset="0.25"/>
<stop offset="1" stop-opacity="0"/>
</linearGradient>
<linearGradient id="paint25_linear_3_1230" x1="63.4735" y1="65.7135" x2="70.9691" y2="77.5101" gradientUnits="userSpaceOnUse">
<stop offset="0.25"/>
<stop offset="1" stop-opacity="0"/>
</linearGradient>
<linearGradient id="paint26_linear_3_1230" x1="68.6562" y1="73.8663" x2="64.6296" y2="88.4083" gradientUnits="userSpaceOnUse">
<stop offset="0.25"/>
<stop offset="1" stop-opacity="0"/>
</linearGradient>
<linearGradient id="paint27_linear_3_1230" x1="64.4717" y1="87.9674" x2="52.492" y2="95.646" gradientUnits="userSpaceOnUse">
<stop offset="0.25"/>
<stop offset="1" stop-opacity="0"/>
</linearGradient>
<linearGradient id="paint28_linear_3_1230" x1="55.1957" y1="90.1304" x2="41.7519" y2="93.6078" gradientUnits="userSpaceOnUse">
<stop offset="0.25"/>
<stop offset="1" stop-opacity="0"/>
</linearGradient>
<linearGradient id="paint29_linear_3_1230" x1="40.7454" y1="90.4548" x2="29.9553" y2="86.8859" gradientUnits="userSpaceOnUse">
<stop offset="0.25"/>
<stop offset="1" stop-opacity="0"/>
</linearGradient>
<linearGradient id="paint30_linear_3_1230" x1="27.5262" y1="82.6348" x2="21.1204" y2="73.7582" gradientUnits="userSpaceOnUse">
<stop offset="0.25"/>
<stop offset="1" stop-opacity="0"/>
</linearGradient>
<linearGradient id="paint31_linear_3_1230" x1="50.4789" y1="69.6069" x2="85.9603" y2="48.7506" gradientUnits="userSpaceOnUse">
<stop offset="0.25"/>
<stop offset="1" stop-opacity="0"/>
</linearGradient>
<linearGradient id="paint32_linear_3_1230" x1="22.1517" y1="68.2591" x2="20.779" y2="57.5606" gradientUnits="userSpaceOnUse">
<stop offset="0.25"/>
<stop offset="1" stop-opacity="0"/>
</linearGradient>
<linearGradient id="paint33_linear_3_1230" x1="24.3398" y1="54.8902" x2="28.4578" y2="43.1851" gradientUnits="userSpaceOnUse">
<stop offset="0.25"/>
<stop offset="1" stop-opacity="0"/>
</linearGradient>
</defs>
</svg>
